<svg width="110" height="94" viewBox="0 0 110 94" fill="none" xmlns="http://www.w3.org/2000/svg">
<path d="M51.5348 108.885V108.944H52.0295H57.1971H57.2077L57.2183 108.943C71.1742 108.342 84.359 102.376 94.0216 92.2882C103.684 82.2006 109.078 68.7714 109.078 54.8026C109.078 40.8339 103.684 27.4046 94.0216 17.3171C84.359 7.22949 71.1742 1.26281 57.2183 0.662016L57.2077 0.661558H57.1971H52.0295H52.0172L52.005 0.662169C38.1157 1.35276 25.0235 7.35646 15.4375 17.431C5.85145 27.5055 0.505308 40.8797 0.505308 54.7861C0.505308 68.6925 5.85145 82.0666 15.4375 92.1411C24.9153 102.102 37.8205 108.083 51.5348 108.885ZM79.1768 83.2803C82.974 84.8455 86.5983 86.8005 89.9917 89.1138C83.1899 96.0752 74.4719 100.841 64.9612 102.816C70.8918 97.2677 75.7176 90.6389 79.1768 83.2803ZM103.829 59.2558C102.97 68.7384 99.341 77.7614 93.3902 85.1989C89.6302 82.5007 85.5932 80.2112 81.3477 78.3692C83.6647 72.2392 85.0495 65.7964 85.4557 59.2558H103.829ZM82.3496 34.3811C86.8274 32.3054 90.9858 29.9157 94.9049 26.8991C100.596 34.9128 103.721 44.4647 103.868 54.2914H85.5485C85.5013 47.5306 84.4226 40.8166 82.3496 34.3811ZM30.3616 83.855C33.8165 90.9164 38.5211 97.2898 44.2442 102.669C35.22 100.647 26.9392 96.12 20.3609 89.5972C23.5018 87.3658 26.8509 85.4428 30.3616 83.855ZM52.198 78.5274L52.2292 102.848C44.9882 97.269 39.1065 90.1172 35.03 81.931C40.5645 79.9962 46.3439 78.8504 52.198 78.5274ZM52.2305 59.322V73.5587C45.6533 73.875 39.1604 75.1732 32.9672 77.41C30.7048 71.6228 29.3456 65.5221 28.9373 59.322H52.2305ZM52.2947 39.722L52.2326 54.1589H28.8756C28.9378 47.7909 29.99 41.4713 31.9945 35.4268C38.493 37.9175 45.3441 39.3671 52.2947 39.722ZM91.8776 22.6095C88.3194 25.283 84.4237 27.7328 80.3831 29.5494C76.82 21.0274 71.4822 13.3676 64.7304 7.07772C75.2279 9.13132 84.7723 14.5838 91.8776 22.6095ZM57.3936 7.40288C65.3688 13.7271 71.6266 21.9587 75.5868 31.3407C69.7339 33.3996 63.5959 34.5339 57.3936 34.7028V7.40288ZM57.3968 39.9967C64.2088 39.7871 70.9493 38.5432 77.3873 36.3076C79.2499 42.1352 80.2369 48.207 80.3163 54.3245H57.4898L57.3968 39.9967ZM57.3925 59.4545H80.1879C79.7759 65.3621 78.5153 71.1797 76.4448 76.7281C70.2715 74.7483 63.8432 73.6761 57.3616 73.5453L57.3925 59.4545ZM57.3936 78.7798C63.1432 78.9551 68.8412 79.9212 74.327 81.6506C70.3422 89.866 64.5528 97.073 57.3936 102.734V78.7798ZM52.3298 6.75846V34.4245C46.0094 34.0873 39.7808 32.7612 33.871 30.4946C37.9277 21.152 44.2782 12.988 52.3298 6.75846ZM44.2547 6.93171C37.7764 13.0426 32.6134 20.4177 29.0881 28.6056C25.3343 26.7438 21.7847 24.4961 18.4965 21.899C25.3358 14.3602 34.3384 9.13611 44.2547 6.93171ZM23.7137 53.9932H5.85539C6.00268 43.8572 9.32491 34.022 15.3541 25.8729C19.0563 28.7418 23.0503 31.2131 27.2701 33.2459C24.9979 39.931 23.7976 46.9333 23.7137 53.9932ZM6.05845 59.1564H23.936C24.3553 66.0097 25.8524 72.754 28.3723 79.1409C24.3601 80.9585 20.5393 83.1721 16.9668 85.7488C10.716 78.1968 6.91154 68.9214 6.05845 59.1564Z" fill="#CFD2FF" stroke="#CFD2FF" stroke-width="0.989383"/>
</svg>
