<svg width="129" height="90" viewBox="0 0 129 90" fill="none" xmlns="http://www.w3.org/2000/svg">
<path d="M4.28071 95.0528C4.84481 103.371 11.399 110.101 19.5311 110.336C27.7164 110.573 35.9273 110.257 44.0439 109.385V87.486C44.0439 84.9324 43.9321 82.4081 43.7632 79.9191C43.1993 71.601 36.6461 64.8486 28.5138 64.6224C25.5128 64.5389 22.5311 64.5389 19.5303 64.6224C11.3978 64.8486 4.84481 71.601 4.28071 79.9191C4.11201 82.4081 4 84.9324 4 87.486C4 90.0397 4.11201 92.564 4.28071 95.0528Z" stroke="#343469" stroke-width="7.37034" stroke-linecap="round" stroke-linejoin="round"/>
<path d="M44.0444 108.804C57.0822 110.948 71.9211 110.948 84.9589 108.804V74.5089C84.9589 67.481 84.6057 60.5955 84.2049 53.9025C83.7263 45.9126 77.7 39.1098 69.6034 38.7266C66.1949 38.5653 62.8134 38.5653 59.4049 38.7266C51.3085 39.1098 45.2822 45.9126 44.8034 53.9025C44.4026 60.5955 44.0494 67.481 44.0494 74.5089C44.0494 86.4322 44.0444 108.804 44.0444 108.804Z" stroke="#343469" stroke-width="7.37034" stroke-linecap="round" stroke-linejoin="round"/>
<path d="M84.964 108.029C93.5495 110.166 102.237 110.867 110.889 110.127C118.415 109.486 123.654 102.763 123.963 95.1385C124.461 82.9209 125 70.2286 125 57.2061C125 44.1836 124.461 31.4912 123.963 19.2737C123.654 11.6493 118.421 4.88931 110.894 4.25156C106.936 3.91615 103.021 3.91615 99.0625 4.25156C91.5361 4.88931 86.3033 11.6493 85.9934 19.2737C85.4967 31.4912 84.9564 44.1836 84.9564 57.2061C84.9564 74.8754 84.964 108.029 84.964 108.029Z" stroke="#343469" stroke-width="7.37034" stroke-linecap="round" stroke-linejoin="round"/>
</svg>
